IKResults-ET4
version=1
nRows=29
nColumns=24
inDegrees=yes

Units are S.I. units (second, meters, Newtons, ...)
If the header above contains a line with 'inDegrees', this indicates whether rotational values are in degrees (yes) or radians (no).

endheader
time	pelvis_tilt	pelvis_list	pelvis_rotation	pelvis_tx	pelvis_ty	pelvis_tz	hip_flexion_r	hip_adduction_r	hip_rotation_r	knee_angle_r	ankle_angle_r	subtalar_angle_r	mtp_angle_r	hip_flexion_l	hip_adduction_l	hip_rotation_l	knee_angle_l	ankle_angle_l	subtalar_angle_l	mtp_angle_l	lumbar_extension	lumbar_bending	lumbar_rotation
      2.52000000	      7.63149733	      0.45614283	   -173.23246032	      4.05781766	      0.96324367	     -0.16049056	     33.86045330	     -2.41894315	     -2.58727780	    -11.44354699	      8.17132982	      2.31884382	      0.00000000	     -5.22472028	      2.23596987	      7.95313181	    -21.38169825	     25.79186630	      6.41615391	      0.00000000	    -14.94446412	      0.79392594	     -5.06456544
      2.53000000	      7.79593691	      0.80263673	   -173.09553018	      4.04688253	      0.96339046	     -0.16189668	     33.44046348	     -2.01195903	     -2.89253272	    -11.26671736	      7.26298885	      2.48519856	      0.00000000	     -5.14475488	      1.73741420	      7.77716720	    -22.19902320	     25.13264045	      6.44038653	      0.00000000	    -14.65449921	      1.31493302	     -5.03916326
      2.54000000	      8.02479409	      1.25319236	   -172.95629656	      4.03596532	      0.96365382	     -0.16327322	     33.14316506	     -1.48839413	     -3.05192952	    -11.32202180	      6.47450006	      2.59908232	      0.00000000	     -4.90715422	      1.12596090	      7.65339454	    -23.11587251	     24.23077003	      6.22464542	      0.00000000	    -14.33884466	      2.01183454	     -4.99345427
      2.55000000	      8.12789810	      1.63586424	   -172.88811666	      4.02451574	      0.96434564	     -0.16460836	     32.70827869	     -1.00630944	     -3.59695379	    -11.29898846	      5.77583448	      3.18500237	      0.00000000	     -4.79829126	      0.60498913	      7.51494691	    -24.09106360	     23.03614722	      5.63820105	      0.00000000	    -14.06259343	      2.56898332	     -4.89273638
      2.56000000	      8.22817240	      2.05901466	   -172.92016981	      4.01278028	      0.96543819	     -0.16631185	     32.16682575	     -0.35828814	     -3.50476829	    -11.21232312	      5.34357965	      3.04666472	      0.00000000	     -4.61844562	      0.00472921	      7.16737411	    -25.16134590	     21.94632985	      5.98251468	      0.00000000	    -13.79279638	      3.20970459	     -4.80873500
      2.57000000	      8.28018701	      2.44635780	   -172.96885188	      4.00084149	      0.96677111	     -0.16800250	     31.59454324	      0.23373181	     -3.45766176	    -11.22217952	      4.90754660	      2.50629557	      0.00000000	     -4.38122626	     -0.58342467	      6.71862713	    -26.37887131	     20.56764342	      6.09991351	      0.00000000	    -13.51712046	      3.74241570	     -4.56892974
      2.58000000	      8.35086897	      2.74045862	   -173.04132231	      3.98883541	      0.96837131	     -0.16964339	     31.00295247	      0.74828184	     -3.27853810	    -11.22311015	      4.67931546	      1.89029946	      0.00000000	     -3.99122582	     -1.09550449	      6.03791782	    -27.75513510	     18.81954531	      6.35771763	      0.00000000	    -13.24505016	      4.23469665	     -4.38449672
      2.59000000	      8.43577355	      3.03639964	   -173.11061256	      3.97696495	      0.96991441	     -0.17142858	     30.40306315	      1.26042067	     -3.16849565	    -11.14126096	      4.58687418	      1.57812793	      0.00000000	     -3.47686429	     -1.61082948	      5.60859753	    -29.33800204	     17.09197604	      6.79625138	      0.00000000	    -12.91549202	      4.73857154	     -4.29753101
      2.60000000	      8.54940516	      3.34654697	   -173.16411922	      3.96516227	      0.97169933	     -0.17348058	     29.65982200	      1.78604021	     -2.52090461	    -10.73988583	      4.05289266	      0.26653104	      0.00000000	     -2.68226780	     -2.29463978	      4.63865364	    -31.20424526	     14.96824041	      7.58351852	      0.00000000	    -12.54847563	      5.09062735	     -4.04182465
      2.61000000	      8.63420082	      3.48154163	   -173.19730313	      3.95337563	      0.97344189	     -0.17517715	     29.10700192	      2.07800834	     -2.63154374	    -10.88159593	      4.24010269	      0.37648844	      0.00000000	     -1.79629341	     -2.74124441	      3.88704720	    -33.27937775	     12.78365508	      8.18556106	      0.00000000	    -12.25087664	      5.41864601	     -3.95625056
      2.62000000	      8.66248467	      3.62107198	   -173.28232416	      3.94153628	      0.97529236	     -0.17726330	     28.45262106	      2.40457287	     -2.82091444	    -10.89876143	      4.35811494	      0.64813354	      0.00000000	     -0.85885749	     -3.24601042	      3.12346858	    -35.42633899	     10.25802915	      8.73827064	      0.00000000	    -11.98677119	      5.64727816	     -3.83820421
      2.63000000	      8.66146537	      3.73634704	   -173.33516051	      3.92987377	      0.97706291	     -0.17933676	     27.76958170	      2.68524232	     -3.02476815	    -10.94444184	      4.67910144	      1.38918235	      0.00000000	      0.21908486	     -3.77498894	      2.41176873	    -37.79650979	      7.62577449	      9.18220419	      0.00000000	    -11.77461750	      5.78862087	     -3.54002095
      2.64000000	      8.56541216	      3.84269755	   -173.41557368	      3.91816257	      0.97884487	     -0.18155809	     26.98337222	      2.99597862	     -3.26663562	    -11.00672404	      4.94942175	      2.09233849	      0.00000000	      1.29556051	     -4.31836820	      1.76421954	    -40.28752710	      4.77225517	      9.23393973	      0.00000000	    -11.67372708	      5.94400313	     -3.29017574
      2.65000000	      8.42219858	      3.90742270	   -173.51387274	      3.90652406	      0.98061223	     -0.18378075	     26.14570535	      3.28540734	     -3.61196205	    -10.99693609	      5.07374687	      2.75245937	      0.00000000	      2.39601612	     -4.74846509	      1.33397845	    -42.86178079	      2.23438125	      9.23066834	      0.00000000	    -11.64690532	      6.06072067	     -3.03508421
      2.66000000	      8.23655873	      3.96783092	   -173.57555344	      3.89505114	      0.98218121	     -0.18589159	     25.26694508	      3.52638772	     -4.05206953	    -11.00745375	      5.37878145	      3.51346711	      0.00000000	      3.58191846	     -5.23392607	      0.82232022	    -45.55336880	     -0.80812038	      8.20240272	      0.00000000	    -11.67696727	      6.15746886	     -2.79421255
      2.67000000	      8.03678508	      3.98942289	   -173.64900813	      3.88376537	      0.98376027	     -0.18795776	     24.40169008	      3.73616272	     -4.70893954	    -11.03720582	      5.73121365	      4.57573762	      0.00000000	      4.77772009	     -5.55630377	      0.60927381	    -48.11119528	     -3.72023786	      7.07383192	      0.00000000	    -11.75730751	      6.21568271	     -2.52967744
      2.68000000	      7.78233647	      3.97471684	   -173.74433578	      3.87248702	      0.98522573	     -0.18991470	     23.55088756	      3.89095289	     -5.50420294	    -11.34005171	      6.55263012	      6.21191690	      0.00000000	      5.93868048	     -5.82174015	      0.37208706	    -50.60340041	     -6.23940100	      5.98214124	      0.00000000	    -11.90243915	      6.22073664	     -2.22248050
      2.69000000	      7.51220128	      4.06946464	   -173.82023924	      3.86138512	      0.98662720	     -0.19193525	     22.50000064	      4.20815674	     -5.81283500	    -11.18935598	      7.09851403	      7.13401355	      0.00000000	      7.13815849	     -6.18839035	      0.19412650	    -53.06737532	     -7.20694645	      4.98641930	      0.00000000	    -12.07459792	      6.33556036	     -1.88193816
      2.70000000	      7.23138137	      4.05143294	   -173.86655550	      3.85055389	      0.98804532	     -0.19354492	     21.66145006	      4.29932835	     -6.60993706	    -11.65433784	      8.14108819	      8.81685959	      0.00000000	      8.37207225	     -6.35453887	      0.04939602	    -55.42347559	     -6.82639380	      4.55784146	      0.00000000	    -12.29941670	      6.36895764	     -1.53601623
      2.71000000	      6.91424718	      4.12692342	   -173.93069202	      3.83964313	      0.98947926	     -0.19524435	     20.52220907	      4.58199162	     -6.77272432	    -11.45126338	      8.75178610	      9.48493094	      0.00000000	      9.59129683	     -6.60823867	     -0.11624801	    -57.58181253	     -5.59676440	      4.15619914	      0.00000000	    -12.55535532	      6.49241599	     -1.15292238
      2.72000000	      6.57736626	      4.19967575	   -173.96434922	      3.82890200	      0.99103944	     -0.19662170	     19.38474225	      4.81525628	     -7.09777182	    -11.31498377	      9.48556601	     10.36626651	      0.00000000	     10.84568823	     -6.78955387	     -0.24133107	    -59.55599271	     -4.22274035	      3.85787063	      0.00000000	    -12.85655085	      6.64276711	     -0.78182840
      2.73000000	      6.23451078	      4.09575549	   -174.18886947	      3.81762689	      0.99287314	     -0.19797275	     18.27253270	      4.89604308	     -7.73400017	    -11.24747846	     10.22872695	     11.71901084	      0.00000000	     11.95931122	     -6.76495895	     -0.62848186	    -61.08930181	     -3.15357797	      3.14615107	      0.00000000	    -13.08397694	      6.59109480	     -0.34529362
      2.74000000	      5.98357357	      4.18723668	   -174.17744398	      3.80712347	      0.99432697	     -0.19913069	     17.10622524	      5.14041505	     -7.85451213	    -10.80026011	     10.73753060	     12.20011737	      0.00000000	     13.42345360	     -6.86445877	     -0.61640425	    -62.53608511	     -2.41763976	      2.41718192	      0.00000000	    -13.29617402	      6.78234298	     -0.00432104
      2.75000000	      5.76722838	      4.12354388	   -174.23756694	      3.79652250	      0.99594411	     -0.20020612	     15.96632071	      5.22253017	     -7.88257523	    -10.41759745	     11.30428796	     12.86793591	      0.00000000	     14.76978379	     -6.75743033	     -0.74399703	    -63.55127215	     -1.80785429	      1.53715539	      0.00000000	    -13.52476871	      6.79201456	      0.39978724
      2.76000000	      5.50751298	      4.00654925	   -174.34721056	      3.78581721	      0.99756059	     -0.20111621	     14.83307201	      5.23077192	     -8.15053641	    -10.16746853	     11.91102811	     13.74547510	      0.00000000	     16.04428799	     -6.54749984	     -0.87403065	    -64.33387886	     -1.12276681	      0.84839885	      0.00000000	    -13.73823316	      6.75959246	      0.71474411
      2.77000000	      5.28936446	      3.83349673	   -174.49152961	      3.77510672	      0.99906206	     -0.20213076	     13.66496937	      5.21036219	     -8.03627612	     -9.80020431	     12.42847054	     14.26692047	      0.00000000	     17.30286839	     -6.27223918	     -1.06484672	    -64.76906476	     -0.32327945	      0.56100537	      0.00000000	    -13.93040036	      6.63286090	      1.01975295
      2.78000000	      5.07357460	      3.62793290	   -174.64968074	      3.76445028	      1.00052585	     -0.20317385	     12.47906760	      5.16163869	     -7.89962267	     -9.32032146	     12.74546070	     14.76708810	      0.00000000	     18.50740199	     -5.95103329	     -1.27920535	    -64.96551478	      0.87021222	      0.64358408	      0.00000000	    -14.12439293	      6.46645475	      1.24339758
      2.79000000	      4.86410881	      3.32963242	   -174.84960378	      3.75384662	      1.00185589	     -0.20392013	     11.62081992	      4.88810416	     -8.77870137	     -9.51249871	     13.42744382	     16.60413495	      0.00000000	     19.68263145	     -5.49483477	     -1.50234945	    -64.90507328	      2.27274549	      1.14065631	      0.00000000	    -14.30408232	      6.21528787	      1.44765654
      2.80000000	      4.63132545	      3.10147746	   -175.06431519	      3.74318842	      1.00298031	     -0.20490604	     10.42088327	      4.83784053	     -8.35950404	     -9.00880399	     13.81065214	     16.65301675	      0.00000000	     20.85536077	     -5.13488557	     -1.67842441	    -64.74166943	      3.76297720	      2.05646947	      0.00000000	    -14.50461796	      6.01137653	      1.61905503
